<?xml version="1.0" encoding="utf-8"?>
<!-- Generator: Adobe Illustrator 17.1.0, SVG Export Plug-In . SVG Version: 6.00 Build 0)  -->
<!DOCTYPE svg PUBLIC "-//W3C//DTD SVG 1.1//EN" "http://www.w3.org/Graphics/SVG/1.1/DTD/svg11.dtd">
<svg version="1.1" id="Layer_1" xmlns="http://www.w3.org/2000/svg" xmlns:xlink="http://www.w3.org/1999/xlink" x="0px" y="0px"
	 viewBox="0 0 792 612" enable-background="new 0 0 792 612" xml:space="preserve">
<g>
	
		<rect x="272" y="151.2" transform="matrix(0.6446 0.7645 -0.7645 0.6446 215.6295 -156.3625)" fill="none" width="7.9" height="5.2"/>
	
		<rect x="326.1" y="118.2" transform="matrix(0.3615 0.9324 -0.9324 0.3615 321.6818 -229.0517)" fill="none" width="3.9" height="4.3"/>
	
		<rect x="302.1" y="129.1" transform="matrix(0.4868 0.8735 -0.8735 0.4868 271.0096 -197.8938)" fill="none" width="3.7" height="5.3"/>
	
		<rect x="341.6" y="112.6" transform="matrix(0.2747 0.9615 -0.9615 0.2747 359.9069 -246.7047)" fill="none" width="3.7" height="5.3"/>
	
		<rect x="357.9" y="110.6" transform="matrix(0.1803 0.9836 -0.9836 0.1803 407.9288 -263.0993)" fill="none" width="7.9" height="5.2"/>
	
		<rect x="548.5" y="188.7" transform="matrix(0.5598 0.8286 -0.8286 0.5598 400.4919 -372.7447)" fill="none" width="5.2" height="3.9"/>
	<path fill="none" d="M395.9,451.4c85.9,0,155.8-69.9,155.8-155.8c0-85.9-69.9-155.8-155.8-155.8c-85.9,0-155.8,69.9-155.8,155.8
		C240.1,381.5,310,451.4,395.9,451.4z M412.5,436.9v-50c37.8-6.8,67.7-36.6,74.6-74.4h50C529.5,377.5,477.7,429.2,412.5,436.9z
		 M412.5,154.3c65.1,7.6,116.9,59.3,124.7,124.4h-50c-6.9-37.8-36.8-67.6-74.6-74.4V154.3z M412.5,223.8
		c27.3,6.3,48.7,27.7,55.1,54.9c1.3,5.4,2,11.1,2,16.9c0,5.8-0.7,11.5-2,16.9c-6.4,27.2-27.9,48.6-55.1,54.9
		c-5.3,1.2-10.9,1.9-16.6,1.9c-5.9,0-11.6-0.7-17.1-2c-27-6.4-48.2-27.7-54.6-54.8c-1.3-5.4-2-11.1-2-16.9c0-5.8,0.7-11.5,2-16.9
		c6.3-27,27.6-48.3,54.6-54.8c5.5-1.3,11.2-2,17.1-2C401.6,221.9,407.2,222.5,412.5,223.8z M378.8,154.3v50
		c-37.6,7-67.2,36.7-74.1,74.3h-50C262.4,213.8,313.9,162.2,378.8,154.3z M304.7,312.4c6.9,37.6,36.5,67.3,74.1,74.3v50
		c-64.9-7.8-116.4-59.4-124.1-124.4H304.7z"/>
	<path fill="none" d="M379.3,250.1v19.4l-6.2,8.7l-21.6,30.4c-0.4,0.5-0.7,1-1,1.5l-0.2,0.3h0c-1.3,2.2-2,4.7-2,7.4
		c0,8,6.5,14.5,14.5,14.5c0.2,0,0.4,0,0.6,0l0,0h33.5h33.5l0-0.1c7.5-0.6,13.3-6.8,13.3-14.4c0-2.7-0.7-5.2-2-7.4h0l-0.3-0.4
		c-0.3-0.5-0.6-0.9-0.9-1.3l-21.6-30.5l-6.3-8.8v-19.2c1.2-1,2-2.4,2-4.1c0-2.9-2.4-5.3-5.3-5.3h-26.8c-2.9,0-5.3,2.4-5.3,5.3
		C377.3,247.6,378.1,249.1,379.3,250.1z M391.4,291.2l4.5-13.8l4.5,13.8l14.6,0l-11.8,8.6l4.5,13.9l-11.8-8.5l-11.8,8.5l4.5-13.9
		l-11.8-8.6L391.4,291.2z"/>
	<path fill="#01314B" d="M215.9,225.3l13.3,5.8c0.3,0.1,0.4,0,0.5-0.2l1.2-2.8c0.1-0.3,0-0.4-0.2-0.5l-3-1.3c-0.1,0-0.2-0.1-0.3-0.2
		c-0.1-0.1-0.2-0.2-0.2-0.3l-1.1-2.5c0,0,0-0.1,0.1-0.1l6.8-0.7c0.1,0,0.2-0.1,0.3-0.1c0.1-0.1,0.2-0.2,0.2-0.3l1.4-3.3
		c0-0.1,0-0.2,0-0.3s-0.1-0.1-0.2-0.1l-9.7,1.4c-0.1,0-0.1,0-0.1-0.1l-3.6-7.3c-0.1-0.1-0.1-0.2-0.2-0.2s-0.1,0-0.2,0.2l-1.4,3.3
		c0,0.1-0.1,0.2-0.1,0.4c0,0.1,0,0.3,0.1,0.4l3.8,7.8l-6-2.6c-0.3-0.1-0.4,0-0.5,0.2l-1.2,2.8C215.5,225,215.6,225.2,215.9,225.3z"
		/>
	<path fill="#01314B" d="M223.6,208.4l12.9,6.7c0.2,0.1,0.4,0.1,0.6-0.2l1.4-2.7c0.1-0.2,0.1-0.4-0.2-0.6l-12.9-6.7
		c-0.2-0.1-0.4-0.1-0.6,0.2l-1.4,2.7C223.2,208.1,223.3,208.3,223.6,208.4z"/>
	<path fill="#01314B" d="M228.9,200.8c0.2,0.3,0.4,0.5,0.7,0.7l1.4,0.9l1.2,0.7l4.4,2.7l1.4,0.8l0.3,0.2c0.3,0.2,0.6,0.3,1,0.4
		c0.3,0.1,0.7,0,1,0c0.3-0.1,0.6-0.2,0.9-0.4c0.3-0.2,0.5-0.4,0.7-0.7l0.2-0.3l2-3.2l2.4-3.9c0.1-0.1,0.1-0.2,0.1-0.3
		c0-0.1-0.1-0.2-0.2-0.3l-2.5-1.5c-0.1-0.1-0.2-0.1-0.3-0.1c-0.1,0-0.2,0.1-0.3,0.2l-3.7,6c-0.1,0.1-0.1,0.2-0.2,0.2
		c-0.1,0-0.2,0-0.3,0L233,199c-0.1-0.1-0.2-0.1-0.2-0.3c0-0.1,0-0.2,0.1-0.3l3.7-6c0.1-0.1,0.1-0.2,0.1-0.3c0-0.1-0.1-0.2-0.2-0.3
		l-2.5-1.5c-0.1-0.1-0.2-0.1-0.3-0.1c-0.1,0-0.2,0.1-0.3,0.2l-4.4,7.1l-0.2,0.3c-0.2,0.3-0.3,0.6-0.3,1c0,0.3,0,0.7,0,1
		S228.7,200.5,228.9,200.8z"/>
	<path fill="#01314B" d="M237,185.6l11.6,8.7c0.2,0.2,0.4,0.1,0.6-0.1l1.8-2.4c0.2-0.2,0.1-0.4-0.1-0.6l-2.6-1.9
		c-0.1-0.1-0.2-0.2-0.3-0.3c-0.1-0.1-0.1-0.2-0.1-0.3l-0.5-2.7c0-0.1,0-0.1,0.1-0.1l6.8,0.9c0.1,0,0.2,0,0.4-0.1
		c0.1-0.1,0.2-0.1,0.3-0.2l2.2-2.9c0.1-0.1,0.1-0.2,0.1-0.3c0-0.1-0.1-0.1-0.2-0.1l-9.8-0.9c-0.1,0-0.1,0-0.1-0.1l-1.8-7.9
		c0-0.1-0.1-0.2-0.1-0.2c-0.1,0-0.1,0-0.2,0.1l-2.2,2.9c-0.1,0.1-0.1,0.2-0.2,0.4c0,0.1,0,0.3,0,0.4l1.9,8.5l-5.2-3.9
		c-0.2-0.2-0.4-0.1-0.6,0.1l-1.8,2.4C236.8,185.3,236.8,185.5,237,185.6z"/>
	<path fill="#01314B" d="M259.8,169.9c0.2,0.2,0.5,0.4,0.8,0.6c0.3,0.1,0.6,0.2,1,0.2c0.3,0,0.6-0.1,1-0.2c0.3-0.1,0.6-0.3,0.9-0.6
		l1.2-1.2l2.9,2.9c0.1,0.1,0.2,0.1,0.3,0.1c0.1,0,0.2,0,0.3-0.1l2.1-2.2c0.1-0.1,0.1-0.2,0.1-0.3s0-0.2-0.1-0.3l-2.9-2.9l1.2-1.2
		c0.2-0.2,0.4-0.5,0.6-0.9s0.2-0.6,0.2-1c0-0.3-0.1-0.6-0.2-1c-0.1-0.3-0.3-0.6-0.6-0.9l-5.6-5.5c-0.1-0.1-0.2-0.1-0.3-0.1
		c-0.1,0-0.2,0-0.3,0.1l-2,2.1c-0.2,0.2-0.2,0.4,0,0.6l4.6,4.6c0.2,0.2,0.2,0.4,0,0.6l-2.9,2.9c-0.1,0.1-0.2,0.1-0.3,0.1
		c-0.1,0-0.2,0-0.3-0.1l-4.6-4.6c-0.1-0.1-0.2-0.1-0.3-0.1s-0.2,0-0.3,0.1l-2,2.1c-0.2,0.2-0.2,0.4,0,0.6L259.8,169.9z"/>
	<path fill="#01314B" d="M267.8,154l6.6,7.8c0.2,0.3,0.5,0.5,0.8,0.6c0.3,0.2,0.6,0.2,0.9,0.3c0.3,0,0.7,0,1-0.1
		c0.3-0.1,0.6-0.3,0.9-0.5l5.9-5c0.3-0.2,0.5-0.5,0.6-0.8c0.2-0.3,0.2-0.6,0.3-0.9c0-0.3,0-0.7-0.1-1c-0.1-0.3-0.3-0.6-0.5-0.9
		l-6.6-7.8c-0.2-0.3-0.5-0.5-0.8-0.6c-0.3-0.2-0.6-0.2-0.9-0.3c-0.3,0-0.6,0-1,0.1c-0.3,0.1-0.6,0.3-0.9,0.5l-5.9,5
		c-0.3,0.2-0.5,0.5-0.6,0.8c-0.2,0.3-0.2,0.6-0.3,0.9c0,0.3,0,0.6,0.1,1C267.4,153.4,267.5,153.7,267.8,154z M275.4,149.1l5.1,6
		l-3.9,3.3l-5.1-6L275.4,149.1z"/>
	<path fill="#01314B" d="M287.7,150.8c0.2,0.3,0.4,0.5,0.7,0.7c0.3,0.2,0.6,0.3,0.9,0.4c0.3,0.1,0.7,0.1,1,0
		c0.3-0.1,0.6-0.2,0.9-0.4l6.4-4.4c0.3-0.2,0.5-0.4,0.7-0.7c0.2-0.3,0.3-0.6,0.4-0.9c0.1-0.3,0-0.7,0-1c-0.1-0.3-0.2-0.7-0.4-0.9
		l-7-10.2c-0.1-0.1-0.2-0.2-0.3-0.2s-0.2,0-0.3,0.1l-2.5,1.7c-0.1,0.1-0.2,0.2-0.2,0.3c0,0.1,0,0.2,0.1,0.3l6.2,8.9
		c0.1,0.1,0.1,0.2,0.1,0.3c0,0.1-0.1,0.2-0.2,0.3l-3.6,2.5c-0.1,0.1-0.2,0.1-0.3,0.1c-0.1,0-0.2-0.1-0.3-0.2l-6.2-8.9
		c-0.2-0.2-0.4-0.3-0.6-0.1l-2.5,1.7c-0.2,0.2-0.3,0.4-0.1,0.6L287.7,150.8z"/>
	<path fill="#01314B" d="M303,143.1c0.1,0.2,0.3,0.3,0.6,0.2l2.6-1.5c0.2-0.1,0.3-0.3,0.2-0.6l-2-3.6c0-0.1,0-0.1,0-0.1l2.3-1.3
		c0.1,0,0.1,0,0.2,0l4.1,2.5c0.1,0.1,0.2,0.1,0.4,0.1s0.3,0,0.4-0.1l3-1.7c0.1-0.1,0.2-0.1,0.2-0.2c0-0.1,0-0.1-0.1-0.2l-4-2.4l0,0
		c-0.1,0-0.1-0.1,0-0.1l0-0.1c0.4-0.4,0.6-0.9,0.7-1.4c0.1-0.5,0-1.1-0.3-1.6l-2.8-5c-0.2-0.3-0.4-0.6-0.7-0.8
		c-0.3-0.2-0.6-0.4-0.9-0.4c-0.3-0.1-0.6-0.1-1-0.1c-0.3,0-0.7,0.1-1,0.3l-8.7,4.8c-0.2,0.1-0.3,0.3-0.2,0.6L303,143.1z
		 M305.3,128.8l1.8,3.3l-4.6,2.6l-1.8-3.3L305.3,128.8z"/>
	<path fill="#01314B" d="M326,131.3c0.1,0.3,0.3,0.3,0.5,0.2l2.8-1.1c0.3-0.1,0.3-0.3,0.2-0.5l-1.3-3.4c0-0.1,0-0.2,0-0.3
		c0-0.1,0.1-0.2,0.2-0.2l4.6-1.8c0.3-0.1,0.6-0.3,0.9-0.6c0.2-0.2,0.4-0.5,0.6-0.8s0.2-0.6,0.2-1c0-0.3,0-0.7-0.2-1l-2.1-5.4
		c-0.1-0.3-0.3-0.6-0.6-0.9c-0.2-0.2-0.5-0.4-0.8-0.6c-0.3-0.1-0.6-0.2-1-0.2s-0.7,0-1,0.2l-8.2,3.2c-0.3,0.1-0.3,0.3-0.2,0.5
		L326,131.3z M329.4,117.8l1.4,3.6l-4,1.5l-1.4-3.6L329.4,117.8z"/>
	<path fill="#01314B" d="M340,126.1c0.1,0.3,0.2,0.4,0.5,0.3l2.9-0.8c0.3-0.1,0.4-0.2,0.3-0.5l-1.1-3.9c0-0.1,0-0.1,0.1-0.1l2.5-0.7
		c0.1,0,0.1,0,0.2,0l3.4,3.4c0.1,0.1,0.2,0.1,0.3,0.2c0.1,0,0.3,0,0.4,0l3.4-1c0.1,0,0.2-0.1,0.2-0.2c0-0.1,0-0.2-0.1-0.2l-3.4-3.3
		l0,0c-0.1,0-0.1-0.1,0-0.1l0.1,0c0.4-0.3,0.8-0.7,1-1.2s0.2-1,0.1-1.6l-1.6-5.5c-0.1-0.3-0.3-0.6-0.5-0.9c-0.2-0.3-0.5-0.5-0.8-0.6
		c-0.3-0.2-0.6-0.3-0.9-0.3c-0.3,0-0.7,0-1,0.1l-9.5,2.7c-0.3,0.1-0.4,0.2-0.3,0.5L340,126.1z M345.5,112.7l1,3.6l-5.1,1.5l-1-3.6
		L345.5,112.7z"/>
	<path fill="#01314B" d="M356.4,119.4c0.1,0.3,0.2,0.7,0.4,0.9c0.2,0.3,0.4,0.5,0.7,0.7s0.6,0.3,0.9,0.4s0.7,0.1,1,0l7.6-1.4
		c0.3-0.1,0.7-0.2,0.9-0.4c0.3-0.2,0.5-0.4,0.7-0.7c0.2-0.3,0.3-0.6,0.4-0.9c0.1-0.3,0.1-0.7,0-1l-1.8-10.1
		c-0.1-0.3-0.2-0.7-0.4-0.9c-0.2-0.3-0.4-0.5-0.7-0.7c-0.3-0.2-0.6-0.3-0.9-0.4c-0.3-0.1-0.7-0.1-1,0l-7.6,1.4
		c-0.3,0.1-0.7,0.2-0.9,0.4c-0.3,0.2-0.5,0.4-0.7,0.7c-0.2,0.3-0.3,0.6-0.4,0.9s-0.1,0.7,0,1L356.4,119.4z M363.6,108.8l1.4,7.8
		l-5.1,0.9l-1.4-7.8L363.6,108.8z"/>
	<path fill="#01314B" d="M372.5,117.6c0.2,0.3,0.4,0.6,0.6,0.8c0.3,0.2,0.5,0.4,0.9,0.5c0.3,0.1,0.7,0.1,1,0.1l6.6-0.6
		c0.3,0,0.7-0.1,1-0.3c0.3-0.2,0.6-0.4,0.8-0.6c0.2-0.3,0.4-0.5,0.5-0.9c0.1-0.3,0.1-0.7,0.1-1l-1.1-12.3c0-0.1-0.1-0.2-0.1-0.3
		s-0.2-0.1-0.3-0.1l-3,0.3c-0.1,0-0.2,0.1-0.3,0.1c-0.1,0.1-0.1,0.2-0.1,0.3l1,10.8c0,0.1,0,0.2-0.1,0.3c-0.1,0.1-0.2,0.1-0.3,0.1
		l-3.2,0.3c-0.1,0-0.2,0-0.3-0.1s-0.1-0.2-0.1-0.3l-0.3-3.1c0-0.3-0.2-0.4-0.5-0.4l-3,0.3c-0.3,0-0.4,0.2-0.4,0.5l0.4,4.7
		C372.3,117,372.4,117.3,372.5,117.6z"/>
	<path fill="#01314B" d="M388.5,116.4c0.1,0.3,0.3,0.6,0.6,0.8c0.2,0.2,0.5,0.4,0.8,0.5c0.3,0.1,0.7,0.2,1,0.2l8.8-0.1
		c0.1,0,0.2,0,0.3-0.1c0.1-0.1,0.1-0.2,0.1-0.3l0-2.7c0-0.1,0-0.2-0.1-0.3c-0.1-0.1-0.2-0.1-0.3-0.1l-7.3,0.1c-0.1,0-0.1,0-0.1-0.1
		l0-2.4c0-0.1,0-0.1,0.1-0.1l6.3-0.1c0.3,0,0.4-0.1,0.4-0.4l0-2.2c0-0.1,0-0.2-0.1-0.3c-0.1-0.1-0.2-0.1-0.3-0.1l-6.3,0.1
		c-0.1,0-0.1,0-0.1-0.1l0-2.4c0-0.1,0-0.1,0.1-0.1l7.4-0.1c0.1,0,0.2,0,0.3-0.1c0.1-0.1,0.1-0.2,0.1-0.3l0-2.8c0-0.1,0-0.2-0.1-0.3
		c-0.1-0.1-0.2-0.1-0.3-0.1l-8.8,0.1c-0.4,0-0.7,0.1-1,0.2c-0.3,0.1-0.6,0.3-0.8,0.6c-0.2,0.2-0.4,0.5-0.5,0.8
		c-0.1,0.3-0.2,0.7-0.2,1l0.2,10.2C388.3,115.7,388.4,116,388.5,116.4z"/>
	<path fill="#01314B" d="M405.1,117.3c0.2,0.3,0.5,0.5,0.8,0.6c0.3,0.2,0.6,0.2,1,0.3l0.4,0l3.8,0.3l4.6,0.4c0.1,0,0.2,0,0.3-0.1
		c0.1-0.1,0.1-0.2,0.1-0.3l0.2-2.9c0-0.1,0-0.2-0.1-0.3c-0.1-0.1-0.2-0.1-0.3-0.1l-7-0.6c-0.1,0-0.2-0.1-0.3-0.1s-0.1-0.2-0.1-0.3
		l0.6-7.1c0-0.1,0.1-0.2,0.1-0.3s0.2-0.1,0.3-0.1l7,0.6c0.1,0,0.2,0,0.3-0.1s0.1-0.2,0.1-0.3l0.2-2.9c0-0.1,0-0.2-0.1-0.3
		c-0.1-0.1-0.2-0.1-0.3-0.1l-8.3-0.7l-0.4,0c-0.3,0-0.7,0-1,0.1c-0.3,0.1-0.6,0.3-0.9,0.5c-0.3,0.2-0.5,0.5-0.6,0.8
		c-0.2,0.3-0.2,0.6-0.3,1l-0.1,1.7l-0.1,1.4l-0.4,5.1l-0.1,1.6l0,0.4c0,0.3,0,0.7,0.1,1S404.8,117,405.1,117.3z"/>
	<path fill="#01314B" d="M421.6,107.9l3.1,0.5c0.1,0,0.2,0.1,0.3,0.2c0.1,0.1,0.1,0.2,0.1,0.3l-1.8,10.7c0,0.1,0,0.2,0.1,0.3
		c0.1,0.1,0.2,0.1,0.3,0.2l3,0.5c0.1,0,0.2,0,0.3-0.1c0.1-0.1,0.1-0.2,0.2-0.3l1.8-10.7c0-0.1,0.1-0.2,0.2-0.3
		c0.1-0.1,0.2-0.1,0.3-0.1l3.1,0.5c0.1,0,0.2,0,0.3-0.1c0.1-0.1,0.1-0.2,0.2-0.3l0.5-2.9c0-0.1,0-0.2-0.1-0.3
		c-0.1-0.1-0.2-0.1-0.3-0.2l-3.1-0.5l-0.8-0.1l-3-0.5l-0.8-0.1l-3.1-0.5c-0.3,0-0.4,0.1-0.5,0.3l-0.5,2.9c0,0.1,0,0.2,0.1,0.3
		C421.4,107.8,421.5,107.9,421.6,107.9z"/>
	<path fill="#01314B" d="M434.6,122.1l8.5,2.2c0.3,0.1,0.7,0.1,1,0.1c0.3,0,0.6-0.2,0.9-0.3c0.3-0.2,0.5-0.4,0.7-0.7
		s0.4-0.6,0.5-0.9l1-4c0.1-0.3,0.1-0.7,0-1s-0.2-0.6-0.3-0.9c-0.2-0.3-0.4-0.5-0.6-0.7c-0.3-0.2-0.6-0.4-0.9-0.4l-5.2-1.3
		c-0.1,0-0.2-0.1-0.2-0.2s-0.1-0.2,0-0.3l0.4-1.7c0-0.1,0.1-0.2,0.2-0.3c0.1-0.1,0.2-0.1,0.3,0l6.8,1.7c0.1,0,0.2,0,0.3,0
		c0.1-0.1,0.2-0.1,0.2-0.2l0.7-2.6c0.1-0.3,0-0.4-0.3-0.5l-8-2.1c-0.3-0.1-0.7-0.1-1,0c-0.3,0.1-0.7,0.2-0.9,0.3
		c-0.3,0.2-0.5,0.4-0.7,0.6c-0.2,0.3-0.4,0.6-0.4,0.9l-1,4c-0.1,0.3-0.1,0.7-0.1,1s0.2,0.6,0.3,0.9c0.2,0.3,0.4,0.5,0.7,0.7
		c0.3,0.2,0.6,0.4,0.9,0.4l5.1,1.3c0.1,0,0.2,0.1,0.3,0.2c0.1,0.1,0.1,0.2,0,0.3l-0.5,1.8c0,0.1-0.1,0.2-0.2,0.2
		c-0.1,0.1-0.2,0.1-0.3,0l-7.2-1.9c-0.1,0-0.2,0-0.3,0c-0.1,0.1-0.2,0.1-0.2,0.3l-0.7,2.6C434.2,121.8,434.3,122,434.6,122.1z"/>
	<path fill="#01314B" d="M457.8,129.1l2.8,1.1c0.3,0.1,0.4,0,0.5-0.2l5.2-13.6c0.1-0.3,0-0.4-0.2-0.5l-2.8-1.1
		c-0.3-0.1-0.4,0-0.5,0.2l-5.2,13.6C457.5,128.8,457.5,129,457.8,129.1z"/>
	<path fill="#01314B" d="M465.4,132l2.7,1.3c0.3,0.1,0.4,0.1,0.6-0.2l4.6-9.8c0-0.1,0.1-0.2,0.2-0.2c0.1,0,0.2,0,0.3,0l3.9,1.8
		c0.1,0,0.2,0.1,0.2,0.2c0,0.1,0,0.2,0,0.3l-4.6,9.8c0,0.1-0.1,0.2,0,0.3c0,0.1,0.1,0.2,0.2,0.2l2.8,1.3c0.1,0,0.2,0.1,0.3,0
		c0.1,0,0.2-0.1,0.2-0.2l5.3-11.2c0.1-0.3,0.2-0.6,0.2-1s0-0.7-0.2-1c-0.1-0.3-0.3-0.6-0.5-0.8c-0.2-0.3-0.5-0.5-0.8-0.6l-9-4.2
		c-0.3-0.1-0.4-0.1-0.6,0.2l-6.2,13.1C465.1,131.7,465.2,131.9,465.4,132z"/>
	<path fill="#01314B" d="M490.6,145.4l2.6,1.7c0.1,0.1,0.2,0.1,0.3,0.1c0.1,0,0.2-0.1,0.3-0.2l5.9-9.1c0.1-0.1,0.1-0.2,0.3-0.2
		c0.1,0,0.2,0,0.3,0.1l2.6,1.7c0.1,0.1,0.2,0.1,0.3,0.1s0.2-0.1,0.3-0.2l1.6-2.4c0.1-0.1,0.1-0.2,0.1-0.3c0-0.1-0.1-0.2-0.2-0.3
		l-2.6-1.7l-0.7-0.4l-2.6-1.7l-0.7-0.4l-2.6-1.7c-0.2-0.2-0.4-0.1-0.6,0.1l-1.6,2.4c-0.1,0.1-0.1,0.2-0.1,0.3c0,0.1,0.1,0.2,0.2,0.3
		l2.6,1.7c0.1,0.1,0.2,0.1,0.2,0.2c0,0.1,0,0.2-0.1,0.3l-5.9,9.1c-0.1,0.1-0.1,0.2-0.1,0.3C490.4,145.2,490.5,145.3,490.6,145.4z"/>
	<path fill="#01314B" d="M499.9,151.6l2.4,1.9c0.2,0.2,0.4,0.1,0.6-0.1l3.1-4c0.1-0.1,0.2-0.1,0.3-0.2c0.1,0,0.2,0,0.3,0.1l3.4,2.7
		c0.1,0.1,0.1,0.2,0.2,0.3c0,0.1,0,0.2-0.1,0.3l-3.1,4c-0.1,0.1-0.1,0.2-0.1,0.3c0,0.1,0.1,0.2,0.2,0.3l2.4,1.9
		c0.1,0.1,0.2,0.1,0.3,0.1c0.1,0,0.2-0.1,0.3-0.2l8.9-11.5c0.1-0.1,0.1-0.2,0.1-0.3c0-0.1-0.1-0.2-0.2-0.3l-2.4-1.9
		c-0.1-0.1-0.2-0.1-0.3-0.1c-0.1,0-0.2,0.1-0.3,0.2l-3,3.9c-0.1,0.1-0.2,0.1-0.3,0.2c-0.1,0-0.2,0-0.3-0.1l-3.4-2.7
		c-0.2-0.2-0.2-0.4-0.1-0.6l3-3.9c0.2-0.2,0.1-0.4-0.1-0.6l-2.4-1.9c-0.2-0.2-0.4-0.1-0.6,0.1l-8.9,11.5
		C499.7,151.3,499.7,151.5,499.9,151.6z"/>
	<path fill="#01314B" d="M514.1,161c-0.1,0.3-0.2,0.6-0.2,1c0,0.3,0.1,0.7,0.2,1c0.1,0.3,0.3,0.6,0.6,0.8l6.4,6
		c0.1,0.1,0.2,0.1,0.3,0.1c0.1,0,0.2,0,0.3-0.1l1.9-2c0.1-0.1,0.1-0.2,0.1-0.3c0-0.1,0-0.2-0.1-0.3l-5.4-5c-0.1-0.1-0.1-0.1,0-0.2
		l1.6-1.7c0-0.1,0.1-0.1,0.2,0l4.6,4.3c0.2,0.2,0.4,0.2,0.6,0l1.5-1.6c0.1-0.1,0.1-0.2,0.1-0.3c0-0.1,0-0.2-0.1-0.3l-4.6-4.3
		c-0.1-0.1-0.1-0.1,0-0.1l1.6-1.7c0-0.1,0.1-0.1,0.2,0l5.4,5c0.1,0.1,0.2,0.1,0.3,0.1c0.1,0,0.2,0,0.3-0.1l1.9-2
		c0.1-0.1,0.1-0.2,0.1-0.3c0-0.1,0-0.2-0.1-0.3l-6.4-6c-0.3-0.2-0.5-0.4-0.9-0.5s-0.6-0.2-1-0.2c-0.3,0-0.6,0.1-1,0.2
		c-0.3,0.1-0.6,0.3-0.8,0.6l-7,7.4C514.4,160.4,514.2,160.7,514.1,161z"/>
	<path fill="#01314B" d="M530.3,179.7l1.9,2.3c0.2,0.2,0.4,0.2,0.6,0.1l3.8-3.1c0.1,0,0.1,0,0.2,0l3.5,4.3c0.1,0.1,0.2,0.1,0.3,0.1
		s0.2,0,0.3-0.1l2.1-1.7c0.1-0.1,0.1-0.2,0.2-0.3c0-0.1,0-0.2-0.1-0.3l-3.5-4.3c0-0.1,0-0.1,0-0.2l1.9-1.5c0,0,0.1,0,0.1,0l4.6,5.7
		c0.1,0.1,0.2,0.1,0.3,0.2s0.2,0,0.3-0.1l2.2-1.8c0.1-0.1,0.1-0.2,0.2-0.3c0-0.1,0-0.2-0.1-0.3l-6.9-8.5c-0.2-0.2-0.4-0.2-0.6-0.1
		l-11.3,9.2C530.1,179.3,530.1,179.5,530.3,179.7z"/>
	<path fill="#01314B" d="M539.5,191.2l1.7,2.5c0.2,0.2,0.3,0.3,0.6,0.1l3.3-2.2c0.1-0.1,0.2-0.1,0.3-0.1s0.2,0.1,0.3,0.2l2.4,3.6
		c0.1,0.1,0.1,0.2,0.1,0.3c0,0.1-0.1,0.2-0.2,0.3l-3.3,2.2c-0.1,0.1-0.2,0.2-0.2,0.3c0,0.1,0,0.2,0.1,0.3l1.7,2.5
		c0.1,0.1,0.2,0.2,0.3,0.2c0.1,0,0.2,0,0.3-0.1l10.3-6.9c0.3-0.2,0.5-0.4,0.7-0.7c0.2-0.3,0.3-0.6,0.4-0.9c0.1-0.3,0.1-0.6,0-1
		c-0.1-0.3-0.2-0.7-0.4-0.9l-4.3-6.4c-0.2-0.3-0.4-0.5-0.7-0.7c-0.3-0.2-0.6-0.3-0.9-0.4c-0.3-0.1-0.6-0.1-1,0s-0.6,0.2-0.9,0.4
		l-10.3,6.9C539.3,190.8,539.3,191,539.5,191.2z M551.3,187.4l2.9,4.3l-3.2,2.2l-2.9-4.3L551.3,187.4z"/>
	<path fill="#01314B" d="M552.6,202.9l-1.4,0.8l-0.3,0.2c-0.3,0.2-0.6,0.4-0.8,0.7c-0.2,0.3-0.4,0.6-0.5,0.9c-0.1,0.3-0.1,0.6-0.1,1
		s0.1,0.7,0.3,1l0.2,0.3l1.8,3.3l2.2,4c0.1,0.1,0.1,0.2,0.2,0.2c0.1,0,0.2,0,0.3,0l2.5-1.4c0.1-0.1,0.2-0.1,0.2-0.2
		c0-0.1,0-0.2,0-0.3l-3.4-6.2c-0.1-0.1-0.1-0.2,0-0.3c0-0.1,0.1-0.2,0.2-0.2l6.2-3.4c0.1-0.1,0.2-0.1,0.3,0c0.1,0,0.2,0.1,0.2,0.2
		l3.4,6.2c0.1,0.1,0.1,0.2,0.2,0.2s0.2,0,0.3,0l2.5-1.4c0.1-0.1,0.2-0.1,0.2-0.2c0-0.1,0-0.2,0-0.3l-4-7.3l-0.2-0.3
		c-0.2-0.3-0.4-0.6-0.7-0.8c-0.3-0.2-0.6-0.4-0.9-0.5s-0.6-0.1-1-0.1s-0.7,0.1-1,0.3l-1.5,0.8l-1.2,0.7L552.6,202.9z"/>
	<path fill="#01314B" d="M557.6,218.7c-0.2,0.2-0.4,0.5-0.5,0.8c-0.1,0.3-0.2,0.6-0.2,1c0,0.3,0.1,0.7,0.2,1l3.5,8
		c0,0.1,0.1,0.2,0.2,0.2s0.2,0,0.3,0l2.5-1.1c0.1,0,0.2-0.1,0.2-0.2c0-0.1,0-0.2,0-0.3l-2.9-6.7c0-0.1,0-0.1,0.1-0.1l2.2-0.9
		c0.1,0,0.1,0,0.1,0.1l2.5,5.7c0.1,0.3,0.3,0.3,0.5,0.2l2-0.9c0.1,0,0.2-0.1,0.2-0.2c0-0.1,0-0.2,0-0.3l-2.5-5.7c0-0.1,0-0.1,0-0.1
		l2.2-1c0.1,0,0.1,0,0.1,0.1l2.9,6.7c0,0.1,0.1,0.2,0.2,0.2c0.1,0,0.2,0,0.3,0l2.5-1.1c0.1,0,0.2-0.1,0.2-0.2c0-0.1,0-0.2,0-0.3
		l-3.5-8c-0.1-0.3-0.3-0.6-0.6-0.8c-0.3-0.2-0.5-0.4-0.8-0.5c-0.3-0.1-0.6-0.2-1-0.2c-0.3,0-0.7,0.1-1,0.2l-9.4,4.1
		C558.1,218.3,557.8,218.4,557.6,218.7z"/>
	
		<rect x="488.4" y="447" transform="matrix(-0.5218 -0.8531 0.8531 -0.5218 364.0782 1106.2371)" fill="#01314B" width="7.5" height="8.2"/>
	
		<rect x="557.8" y="366.6" transform="matrix(-0.9055 -0.4244 0.4244 -0.9055 909.9553 947.2725)" fill="#01314B" width="5.3" height="11.3"/>
	
		<rect x="244.7" y="404.5" transform="matrix(-0.6236 -0.7817 0.7817 -0.6236 83.1869 864.2853)" fill="#01314B" width="9.9" height="15.2"/>
	<path fill="#01314B" d="M560.1,337c3.3-13.3,5.1-27.1,5.1-41.4c0-93.4-75.9-169.3-169.3-169.3c-93.3,0-169.3,75.9-169.3,169.3
		c0,12.9,1.5,25.5,4.2,37.6l-44.5,14c23.2,94.2,108.3,164.2,209.6,164.2c99.8,0,184-68.2,208.6-160.4L560.1,337z M395.9,139.8
		c85.9,0,155.8,69.9,155.8,155.8c0,85.9-69.9,155.8-155.8,155.8c-85.9,0-155.8-69.9-155.8-155.8C240.1,209.6,310,139.8,395.9,139.8z
		 M206.9,366.2l-2-5.5c-0.2-0.5,0-0.8,0.5-1l26.3-9.4c0.5-0.2,0.8,0,1,0.5l2,5.5c0.2,0.5,0,0.8-0.5,1l-26.3,9.4
		C207.4,366.9,207,366.7,206.9,366.2z M223.8,401.2c-0.2-0.1-0.4-0.2-0.5-0.4l-2.8-5.2c-0.1-0.2-0.1-0.4-0.1-0.6
		c0.1-0.2,0.2-0.3,0.4-0.5l18.3-9.8c0.2-0.1,0.3-0.3,0.4-0.5c0.1-0.2,0-0.4-0.1-0.6l-3.9-7.4c-0.1-0.2-0.3-0.3-0.5-0.4
		c-0.2-0.1-0.4-0.1-0.6,0.1l-18.3,9.8c-0.5,0.3-0.8,0.1-1.1-0.3l-2.7-5.1c-0.3-0.5-0.1-0.8,0.3-1.1l24.6-13.2
		c0.5-0.3,0.8-0.1,1.1,0.3l9,16.8c0.3,0.6,0.5,1.2,0.6,1.9c0,0.7,0,1.3-0.2,1.9c-0.2,0.6-0.5,1.1-0.9,1.7c-0.4,0.5-0.9,0.9-1.5,1.3
		l-21,11.2C224.2,401.2,224,401.3,223.8,401.2z M248,428.8c-0.6,0.2-1.3,0.2-1.9,0.2c-0.6-0.1-1.2-0.2-1.8-0.6s-1.1-0.7-1.5-1.3
		l-11.9-14.9c-0.3-0.4-0.3-0.8,0.1-1.1l21.8-17.4c0.4-0.3,0.8-0.3,1.1,0.1l11.9,14.9c0.4,0.5,0.7,1.1,0.9,1.8
		c0.2,0.6,0.2,1.3,0.1,1.9c-0.1,0.6-0.3,1.2-0.6,1.8c-0.3,0.6-0.7,1.1-1.2,1.5l-15.4,12.3C249.2,428.4,248.6,428.7,248,428.8z
		 M289.9,432.8l-10,11.2c-0.4,0.5-1,0.9-1.6,1.2c-0.6,0.3-1.2,0.4-1.8,0.5c-0.6,0-1.2,0-1.9-0.2c-0.6-0.2-1.2-0.5-1.7-1l-2.4-2.1
		l-5.3,5.9c-0.1,0.2-0.3,0.3-0.6,0.3c-0.2,0-0.4-0.1-0.6-0.2l-4.4-3.9c-0.2-0.1-0.3-0.3-0.3-0.5c0-0.2,0.1-0.4,0.2-0.6l5.3-5.9
		l-2.4-2.1c-0.5-0.4-0.9-1-1.2-1.6c-0.3-0.6-0.4-1.2-0.5-1.8c0-0.6,0-1.2,0.2-1.9c0.2-0.6,0.5-1.2,1-1.7l10-11.2
		c0.4-0.4,0.7-0.4,1.1-0.1l4.2,3.7c0.2,0.1,0.3,0.3,0.3,0.6c0,0.2-0.1,0.4-0.2,0.6l-8.3,9.4c-0.1,0.2-0.2,0.4-0.2,0.6
		c0,0.2,0.1,0.4,0.3,0.5l5.8,5.2c0.4,0.4,0.8,0.3,1.1-0.1l8.3-9.4c0.4-0.4,0.7-0.4,1.1-0.1l4.2,3.7c0.2,0.1,0.3,0.3,0.3,0.6
		C290.1,432.5,290,432.7,289.9,432.8z M326.9,454.7l-2.4,4.6c-0.1,0.2-0.3,0.3-0.5,0.4c-0.2,0.1-0.4,0-0.6-0.1l-12-6.1
		c-0.2-0.1-0.4-0.1-0.6,0c-0.2,0.1-0.3,0.2-0.4,0.4l-1.5,3c-0.1,0.2-0.1,0.4-0.1,0.6c0.1,0.2,0.2,0.4,0.4,0.5l9.1,4.6
		c0.6,0.3,1.1,0.7,1.5,1.2c0.4,0.5,0.7,1,0.9,1.6c0.2,0.6,0.3,1.2,0.2,1.9c0,0.6-0.2,1.3-0.5,1.9l-3.6,7.1c-0.3,0.6-0.7,1.1-1.2,1.5
		c-0.5,0.4-1.1,0.7-1.7,0.9c-0.6,0.2-1.2,0.3-1.9,0.2c-0.7,0-1.3-0.2-1.9-0.5l-15-7.6c-0.5-0.2-0.6-0.6-0.4-1.1l2.3-4.5
		c0.1-0.2,0.3-0.3,0.5-0.4c0.2-0.1,0.4-0.1,0.6,0.1l12.8,6.5c0.2,0.1,0.4,0.1,0.6,0.1c0.2-0.1,0.4-0.2,0.5-0.4l1.6-3.1
		c0.1-0.2,0.1-0.4,0.1-0.6c-0.1-0.2-0.2-0.4-0.4-0.5l-9.1-4.6c-0.6-0.3-1.1-0.7-1.5-1.2c-0.4-0.5-0.7-1.1-0.9-1.7
		c-0.2-0.6-0.3-1.2-0.2-1.9c0-0.6,0.2-1.3,0.5-1.9l3.6-7.1c0.3-0.6,0.7-1.1,1.2-1.5s1-0.7,1.6-0.9c0.6-0.2,1.2-0.3,1.9-0.2
		c0.7,0,1.3,0.2,1.9,0.5l14.2,7.2C327.1,453.9,327.2,454.2,326.9,454.7z M354,463.9l-1.7,5.3c-0.1,0.2-0.2,0.4-0.4,0.5
		c-0.2,0.1-0.4,0.1-0.6,0l-5.7-1.8c-0.2-0.1-0.4-0.1-0.6,0c-0.2,0.1-0.3,0.2-0.4,0.5l-6.3,19.8c-0.1,0.2-0.2,0.4-0.4,0.5
		c-0.2,0.1-0.4,0.1-0.6,0.1l-5.6-1.8c-0.2-0.1-0.4-0.2-0.5-0.4c-0.1-0.2-0.1-0.4,0-0.6l6.3-19.8c0.1-0.2,0.1-0.4,0-0.6
		c-0.1-0.2-0.2-0.3-0.5-0.4l-5.7-1.8c-0.2-0.1-0.4-0.2-0.5-0.4c-0.1-0.2-0.1-0.4,0-0.6l1.7-5.3c0.2-0.5,0.5-0.7,1-0.5l5.7,1.8
		l1.5,0.5l5.6,1.8l1.5,0.5l5.7,1.8c0.2,0.1,0.4,0.2,0.5,0.4C354.1,463.5,354.1,463.7,354,463.9z M383.1,472.8l-3.4,23.5
		c0,0.2-0.1,0.4-0.3,0.5c-0.2,0.1-0.4,0.2-0.6,0.1l-5.8-0.8c-0.2,0-0.4-0.1-0.5-0.3c-0.1-0.2-0.2-0.4-0.1-0.6l1.1-7.5
		c0-0.2,0-0.4-0.1-0.6c-0.1-0.2-0.3-0.3-0.5-0.3l-8.3-1.2c-0.2,0-0.4,0-0.6,0.1c-0.2,0.1-0.3,0.3-0.3,0.5l-1.1,7.5
		c-0.1,0.5-0.4,0.8-0.9,0.7l-5.8-0.8c-0.5-0.1-0.8-0.4-0.7-0.9l3.4-23.5c0.1-0.7,0.3-1.3,0.6-1.8s0.8-1,1.3-1.4
		c0.5-0.4,1.1-0.6,1.7-0.8c0.6-0.2,1.3-0.2,2-0.1l14.8,2.1c0.7,0.1,1.3,0.3,1.8,0.7c0.6,0.4,1,0.8,1.4,1.3c0.4,0.5,0.6,1.1,0.8,1.7
		C383.1,471.5,383.2,472.1,383.1,472.8z M417,496.5c-0.1,0.1-0.2,0.2-0.5,0.2l-6.7,0.3c-0.2,0-0.5,0-0.7-0.2
		c-0.2-0.1-0.4-0.3-0.5-0.5l-4.8-7.8c-0.1-0.1-0.2-0.2-0.3-0.2l-5,0.2c-0.1,0-0.2,0.1-0.2,0.2l0.3,7.8c0,0.5-0.2,0.8-0.8,0.8
		l-5.8,0.2c-0.5,0-0.8-0.2-0.8-0.8l-1.1-27.9c0-0.5,0.2-0.8,0.8-0.8l19-0.8c0.7,0,1.3,0.1,1.9,0.3c0.6,0.2,1.1,0.6,1.6,1
		c0.5,0.4,0.8,0.9,1.1,1.5c0.3,0.6,0.4,1.2,0.5,1.9l0.4,11.1c0,1.1-0.2,2-0.8,2.9c-0.6,0.9-1.4,1.5-2.4,1.8l-0.1,0
		c-0.2,0.1-0.2,0.2-0.1,0.3l0,0.1l4.8,7.6C417.1,496.2,417.1,496.4,417,496.5z M444,468.7c-0.1,0.2-0.3,0.3-0.5,0.3l-5.9,1.2
		c-0.2,0-0.4,0.2-0.5,0.3c-0.1,0.2-0.2,0.4-0.1,0.6l4.3,20.3c0,0.2,0,0.4-0.1,0.6c-0.1,0.2-0.3,0.3-0.5,0.3l-5.7,1.2
		c-0.2,0-0.4,0-0.6-0.1c-0.2-0.1-0.3-0.3-0.3-0.5l-4.3-20.3c0-0.2-0.2-0.4-0.3-0.5c-0.2-0.1-0.4-0.1-0.6-0.1l-5.9,1.2
		c-0.2,0-0.4,0-0.6-0.1s-0.3-0.3-0.3-0.5l-1.1-5.4c-0.1-0.5,0.1-0.8,0.6-0.9l5.9-1.2l1.5-0.3l5.7-1.2l1.5-0.3l5.9-1.2
		c0.2,0,0.4,0,0.6,0.1c0.2,0.1,0.3,0.3,0.3,0.5l1.1,5.4C444.2,468.3,444.1,468.5,444,468.7z M479.9,477.9c-0.2,0.6-0.6,1.1-1.1,1.6
		c-0.5,0.5-1,0.8-1.6,1.1l-13.9,5.5c-0.6,0.2-1.3,0.4-1.9,0.4c-0.7,0-1.3-0.1-1.9-0.4c-0.6-0.3-1.1-0.6-1.6-1.1
		c-0.5-0.5-0.8-1-1.1-1.6l-8.7-22.1c-0.2-0.5,0-0.8,0.5-1l5.4-2.1c0.5-0.2,0.8,0,1,0.5l7.6,19.3c0.1,0.2,0.2,0.4,0.4,0.4
		c0.2,0.1,0.4,0.1,0.6,0l7.8-3.1c0.2-0.1,0.4-0.2,0.4-0.4s0.1-0.4,0-0.6l-7.6-19.3c-0.1-0.2-0.1-0.4,0-0.6c0.1-0.2,0.2-0.3,0.4-0.4
		l5.4-2.2c0.2-0.1,0.4-0.1,0.6,0c0.2,0.1,0.3,0.2,0.4,0.4l8.7,22.1c0.2,0.6,0.4,1.3,0.3,1.9C480.3,476.7,480.2,477.4,479.9,477.9z
		 M505.2,453.8c-0.1,0.6-0.4,1.2-0.8,1.7c-0.4,0.5-0.9,1-1.4,1.3l-8,4.9c-0.2,0.1-0.3,0.3-0.4,0.5c-0.1,0.2,0,0.4,0.1,0.6l3.6,5.9
		c0.3,0.5,0.2,0.8-0.3,1.1l-5,3c-0.5,0.3-0.8,0.2-1.1-0.3l-14.6-23.8c-0.3-0.5-0.2-0.8,0.3-1.1l14.3-8.8c0.6-0.4,1.2-0.6,1.8-0.7
		c0.7-0.1,1.3-0.1,1.9,0.1c0.6,0.1,1.2,0.4,1.7,0.8c0.5,0.4,1,0.9,1.3,1.4l5.8,9.5c0.4,0.6,0.6,1.2,0.7,1.8
		C505.4,452.5,505.4,453.2,505.2,453.8z M546.6,430.4l-12.8,12.9c-0.4,0.4-0.8,0.4-1.1,0l-19.8-19.7c-0.4-0.4-0.4-0.8,0-1.1l4.1-4.1
		c0.4-0.4,0.8-0.4,1.1,0l14.7,14.6c0.2,0.2,0.3,0.2,0.6,0.2c0.2,0,0.4-0.1,0.6-0.3l7.6-7.7c0.2-0.2,0.3-0.2,0.6-0.2
		c0.2,0,0.4,0.1,0.6,0.3l3.9,3.9c0.2,0.2,0.2,0.3,0.3,0.6C546.9,430,546.8,430.2,546.6,430.4z M567.1,403.3l-3.4,4.8
		c-0.1,0.2-0.3,0.3-0.5,0.3c-0.2,0-0.4,0-0.6-0.1l-6.1-4.4c-0.2-0.1-0.4-0.2-0.6-0.2c-0.2,0-0.4,0.1-0.5,0.3l-4.9,6.8
		c-0.1,0.2-0.2,0.4-0.1,0.6c0,0.2,0.1,0.4,0.3,0.5l6.1,4.4c0.4,0.3,0.5,0.7,0.2,1.1l-3.4,4.7c-0.3,0.4-0.7,0.5-1.1,0.2l-19.3-13.8
		c-0.5-0.4-1-0.9-1.3-1.4c-0.3-0.6-0.6-1.1-0.7-1.8c-0.1-0.6-0.1-1.3,0.1-1.9c0.1-0.6,0.4-1.2,0.8-1.8l8.7-12.1
		c0.4-0.5,0.9-1,1.4-1.3c0.6-0.3,1.2-0.6,1.8-0.7c0.6-0.1,1.2-0.1,1.9,0c0.6,0.1,1.2,0.4,1.8,0.8l19.3,13.8c0.2,0.1,0.3,0.3,0.3,0.5
		C567.3,403,567.3,403.2,567.1,403.3z M574.1,391.5c-0.2,0.5-0.6,0.6-1.1,0.4L547.8,380c-0.5-0.2-0.6-0.6-0.4-1.1l8.1-17.3
		c0.3-0.6,0.7-1.1,1.2-1.6c0.5-0.4,1-0.8,1.6-1c0.6-0.2,1.2-0.3,1.9-0.3c0.7,0,1.3,0.2,1.9,0.5l5,2.3c0.2,0.1,0.4,0.2,0.6,0.4
		c0.2,0.2,0.3,0.4,0.4,0.6l1.3,2.6c0.1,0.2,0.3,0.3,0.5,0.4s0.4,0.1,0.6,0l2.7-0.7c0.2-0.1,0.5-0.1,0.7,0c0.3,0,0.5,0.1,0.7,0.2
		l5.2,2.4c0.6,0.3,1.1,0.7,1.6,1.2c0.4,0.5,0.8,1,1,1.6c0.2,0.6,0.3,1.2,0.3,1.9c0,0.7-0.2,1.3-0.5,1.9L574.1,391.5z"/>
	
		<rect x="541.1" y="396.7" transform="matrix(-0.8134 -0.5817 0.5817 -0.8134 754.2648 1045.2239)" fill="#01314B" width="7.4" height="9.9"/>
	
		<rect x="399.2" y="473.1" transform="matrix(-3.965236e-02 -0.9992 0.9992 -3.965236e-02 -59.0969 899.609)" fill="#01314B" width="7.2" height="10.2"/>
	
		<rect x="365.1" y="472.7" transform="matrix(-0.99 -0.141 0.141 -0.99 669.2243 1000.1275)" fill="#01314B" width="9.9" height="7.4"/>
	
		<rect x="567.7" y="371.4" transform="matrix(-0.9055 -0.4244 0.4244 -0.9055 927.1365 960.5612)" fill="#01314B" width="5.8" height="11.3"/>
	<path fill="#01314B" d="M378.8,204.4v-50c-64.9,7.8-116.4,59.5-124.1,124.4h50C311.6,241.1,341.2,211.4,378.8,204.4z"/>
	<path fill="#01314B" d="M378.8,436.8v-50c-37.6-7-67.2-36.7-74.1-74.3h-50C262.4,377.3,313.9,429,378.8,436.8z"/>
	<path fill="#01314B" d="M487.2,278.7h50c-7.7-65.1-59.5-116.8-124.7-124.4v50C450.4,211.1,480.2,240.9,487.2,278.7z"/>
	<path fill="#01314B" d="M412.5,386.8v50c65.1-7.6,116.9-59.3,124.7-124.4h-50C480.2,350.2,450.4,380,412.5,386.8z"/>
	<path fill="#EE3326" d="M324.2,278.7c-1.3,5.4-2,11.1-2,16.9c0,5.8,0.7,11.5,2,16.9c6.3,27,27.6,48.3,54.6,54.8
		c5.5,1.3,11.2,2,17.1,2c5.7,0,11.3-0.7,16.6-1.9c27.3-6.3,48.7-27.7,55.1-54.9c1.3-5.4,2-11.1,2-16.9c0-5.8-0.7-11.5-2-16.9
		c-6.4-27.2-27.9-48.6-55.1-54.9c-5.3-1.2-10.9-1.9-16.6-1.9c-5.9,0-11.6,0.7-17.1,2C351.8,230.3,330.6,251.6,324.2,278.7z
		 M382.5,240.7h26.8c2.9,0,5.3,2.4,5.3,5.3c0,1.7-0.8,3.2-2,4.1v19.2l6.3,8.8l21.6,30.5c0.3,0.4,0.6,0.9,0.9,1.3l0.3,0.4h0
		c1.3,2.2,2,4.7,2,7.4c0,7.6-5.9,13.8-13.3,14.4l0,0.1h-33.5h-33.5l0,0c-0.2,0-0.4,0-0.6,0c-8,0-14.5-6.5-14.5-14.5
		c0-2.7,0.7-5.2,2-7.4h0l0.2-0.3c0.3-0.5,0.7-1,1-1.5l21.6-30.4l6.2-8.7v-19.4c-1.2-1-2-2.4-2-4.1
		C377.3,243,379.6,240.7,382.5,240.7z"/>
	<polygon fill="#EE3326" points="388.6,299.9 384.1,313.7 395.9,305.2 407.7,313.7 403.3,299.9 415.1,291.3 400.5,291.2 
		395.9,277.4 391.4,291.2 376.8,291.3 	"/>
	<path fill="#FFFFFF" d="M234.6,356.3l-2-5.5c-0.2-0.5-0.5-0.7-1-0.5l-26.3,9.4c-0.5,0.2-0.7,0.5-0.5,1l2,5.5c0.2,0.5,0.5,0.7,1,0.5
		l26.3-9.4C234.7,357.1,234.8,356.8,234.6,356.3z"/>
	<path fill="#FFFFFF" d="M246.9,388.7c0.4-0.5,0.7-1.1,0.9-1.7c0.2-0.6,0.2-1.2,0.2-1.9c0-0.7-0.2-1.3-0.6-1.9l-9-16.8
		c-0.3-0.5-0.6-0.6-1.1-0.3l-24.6,13.2c-0.5,0.3-0.6,0.6-0.3,1.1l2.7,5.1c0.3,0.5,0.6,0.6,1.1,0.3l18.3-9.8c0.2-0.1,0.4-0.1,0.6-0.1
		c0.2,0.1,0.3,0.2,0.5,0.4l3.9,7.4c0.1,0.2,0.1,0.4,0.1,0.6c-0.1,0.2-0.2,0.4-0.4,0.5l-18.3,9.8c-0.2,0.1-0.3,0.3-0.4,0.5
		c-0.1,0.2-0.1,0.4,0.1,0.6l2.8,5.2c0.1,0.2,0.3,0.3,0.5,0.4c0.2,0.1,0.4,0,0.6-0.1l21-11.2C246,389.6,246.5,389.2,246.9,388.7z"/>
	<path fill="#FFFFFF" d="M266.3,414.2c0.3-0.6,0.5-1.2,0.6-1.8c0.1-0.6,0-1.2-0.1-1.9c-0.2-0.6-0.5-1.2-0.9-1.8L254,393.9
		c-0.3-0.4-0.7-0.5-1.1-0.1L231,411.1c-0.4,0.3-0.5,0.7-0.1,1.1l11.9,14.9c0.4,0.5,0.9,0.9,1.5,1.3s1.2,0.5,1.8,0.6
		c0.6,0.1,1.3,0,1.9-0.2c0.6-0.2,1.2-0.5,1.7-0.9l15.4-12.3C265.6,415.3,266,414.8,266.3,414.2z M246.8,420.7l-6.2-7.7l11.9-9.5
		l6.2,7.7L246.8,420.7z"/>
	<path fill="#FFFFFF" d="M285.7,428c-0.4-0.4-0.8-0.3-1.1,0.1l-8.3,9.4c-0.4,0.4-0.7,0.4-1.1,0.1l-5.8-5.2c-0.2-0.2-0.3-0.3-0.3-0.5
		c0-0.2,0.1-0.4,0.2-0.6l8.3-9.4c0.1-0.2,0.2-0.4,0.2-0.6c0-0.2-0.1-0.4-0.3-0.6l-4.2-3.7c-0.4-0.4-0.8-0.3-1.1,0.1l-10,11.2
		c-0.4,0.5-0.8,1.1-1,1.7c-0.2,0.6-0.3,1.2-0.2,1.9c0,0.6,0.2,1.2,0.5,1.8c0.3,0.6,0.7,1.1,1.2,1.6l2.4,2.1l-5.3,5.9
		c-0.1,0.2-0.2,0.4-0.2,0.6c0,0.2,0.1,0.4,0.3,0.5l4.4,3.9c0.2,0.1,0.4,0.2,0.6,0.2c0.2,0,0.4-0.1,0.6-0.3l5.3-5.9l2.4,2.1
		c0.5,0.4,1.1,0.8,1.7,1c0.6,0.2,1.2,0.3,1.9,0.2c0.6,0,1.2-0.2,1.8-0.5c0.6-0.3,1.1-0.7,1.6-1.2l10-11.2c0.1-0.2,0.2-0.4,0.2-0.6
		c0-0.2-0.1-0.4-0.3-0.6L285.7,428z"/>
	<path fill="#FFFFFF" d="M326.6,453.6l-14.2-7.2c-0.6-0.3-1.2-0.5-1.9-0.5c-0.7,0-1.3,0-1.9,0.2c-0.6,0.2-1.1,0.5-1.6,0.9
		s-0.9,0.9-1.2,1.5l-3.6,7.1c-0.3,0.6-0.5,1.2-0.5,1.9c0,0.6,0,1.3,0.2,1.9c0.2,0.6,0.5,1.2,0.9,1.7c0.4,0.5,0.9,0.9,1.5,1.2
		l9.1,4.6c0.2,0.1,0.3,0.3,0.4,0.5c0.1,0.2,0.1,0.4-0.1,0.6l-1.6,3.1c-0.1,0.2-0.3,0.3-0.5,0.4c-0.2,0.1-0.4,0-0.6-0.1l-12.8-6.5
		c-0.2-0.1-0.4-0.1-0.6-0.1c-0.2,0.1-0.4,0.2-0.5,0.4l-2.3,4.5c-0.2,0.5-0.1,0.8,0.4,1.1l15,7.6c0.6,0.3,1.2,0.5,1.9,0.5
		c0.7,0,1.3,0,1.9-0.2c0.6-0.2,1.1-0.5,1.7-0.9c0.5-0.4,0.9-0.9,1.2-1.5l3.6-7.1c0.3-0.6,0.5-1.2,0.5-1.9c0-0.6,0-1.3-0.2-1.9
		c-0.2-0.6-0.5-1.1-0.9-1.6c-0.4-0.5-0.9-0.9-1.5-1.2l-9.1-4.6c-0.2-0.1-0.3-0.3-0.4-0.5c-0.1-0.2,0-0.4,0.1-0.6l1.5-3
		c0.1-0.2,0.2-0.3,0.4-0.4c0.2-0.1,0.4-0.1,0.6,0l12,6.1c0.2,0.1,0.4,0.1,0.6,0.1c0.2-0.1,0.4-0.2,0.5-0.4l2.4-4.6
		C327.2,454.2,327.1,453.9,326.6,453.6z"/>
	<path fill="#FFFFFF" d="M353.5,462.9l-5.7-1.8l-1.5-0.5l-5.6-1.8l-1.5-0.5l-5.7-1.8c-0.5-0.2-0.8,0-1,0.5l-1.7,5.3
		c-0.1,0.2-0.1,0.4,0,0.6c0.1,0.2,0.3,0.3,0.5,0.4l5.7,1.8c0.2,0.1,0.4,0.2,0.5,0.4c0.1,0.2,0.1,0.4,0,0.6l-6.3,19.8
		c-0.1,0.2-0.1,0.4,0,0.6c0.1,0.2,0.3,0.3,0.5,0.4l5.6,1.8c0.2,0.1,0.4,0,0.6-0.1c0.2-0.1,0.3-0.3,0.4-0.5l6.3-19.8
		c0.1-0.2,0.2-0.4,0.4-0.5c0.2-0.1,0.4-0.1,0.6,0l5.7,1.8c0.2,0.1,0.4,0.1,0.6,0c0.2-0.1,0.3-0.3,0.4-0.5l1.7-5.3
		c0.1-0.2,0.1-0.4,0-0.6C353.9,463.1,353.7,463,353.5,462.9z"/>
	<path fill="#FFFFFF" d="M382.1,469.1c-0.4-0.5-0.8-0.9-1.4-1.3c-0.6-0.3-1.2-0.6-1.8-0.7l-14.8-2.1c-0.7-0.1-1.3-0.1-2,0.1
		c-0.6,0.2-1.2,0.5-1.7,0.8c-0.5,0.4-0.9,0.8-1.3,1.4s-0.6,1.2-0.6,1.8l-3.4,23.5c-0.1,0.5,0.2,0.8,0.7,0.9l5.8,0.8
		c0.5,0.1,0.8-0.2,0.9-0.7l1.1-7.5c0-0.2,0.1-0.4,0.3-0.5c0.2-0.1,0.4-0.2,0.6-0.1l8.3,1.2c0.2,0,0.4,0.1,0.5,0.3
		c0.1,0.2,0.2,0.4,0.1,0.6l-1.1,7.5c0,0.2,0,0.4,0.1,0.6c0.1,0.2,0.3,0.3,0.5,0.3l5.8,0.8c0.2,0,0.4,0,0.6-0.1
		c0.2-0.1,0.3-0.3,0.3-0.5l3.4-23.5c0.1-0.7,0.1-1.3-0.1-2C382.8,470.2,382.5,469.6,382.1,469.1z M374.4,480.7l-9.8-1.4l1-7.3
		l9.8,1.4L374.4,480.7z"/>
	<path fill="#FFFFFF" d="M412.1,488.4L412.1,488.4c-0.2-0.2-0.1-0.3,0.1-0.3l0.1,0c1-0.3,1.8-1,2.4-1.8c0.6-0.9,0.9-1.9,0.8-2.9
		l-0.4-11.1c0-0.7-0.2-1.3-0.5-1.9c-0.3-0.6-0.7-1.1-1.1-1.5c-0.5-0.4-1-0.7-1.6-1c-0.6-0.2-1.3-0.4-1.9-0.3l-19,0.8
		c-0.5,0-0.8,0.3-0.8,0.8l1.1,27.9c0,0.5,0.3,0.8,0.8,0.8l5.8-0.2c0.5,0,0.8-0.3,0.8-0.8l-0.3-7.8c0-0.1,0.1-0.2,0.2-0.2l5-0.2
		c0.1,0,0.2,0,0.3,0.2l4.8,7.8c0.1,0.2,0.3,0.3,0.5,0.5c0.2,0.1,0.5,0.2,0.7,0.2l6.7-0.3c0.2,0,0.4-0.1,0.5-0.2s0.1-0.3-0.1-0.5
		L412.1,488.4z M397.8,482l-0.3-7.2l10.2-0.4l0.3,7.2L397.8,482z"/>
	<path fill="#FFFFFF" d="M443,462.6c0-0.2-0.2-0.4-0.3-0.5c-0.2-0.1-0.4-0.2-0.6-0.1l-5.9,1.2l-1.5,0.3l-5.7,1.2l-1.5,0.3l-5.9,1.2
		c-0.5,0.1-0.7,0.4-0.6,0.9l1.1,5.4c0,0.2,0.2,0.4,0.3,0.5s0.4,0.2,0.6,0.1l5.9-1.2c0.2,0,0.4,0,0.6,0.1c0.2,0.1,0.3,0.3,0.3,0.5
		L434,493c0,0.2,0.2,0.4,0.3,0.5c0.2,0.1,0.4,0.2,0.6,0.1l5.7-1.2c0.2,0,0.4-0.2,0.5-0.3c0.1-0.2,0.1-0.4,0.1-0.6l-4.3-20.3
		c0-0.2,0-0.4,0.1-0.6c0.1-0.2,0.3-0.3,0.5-0.3l5.9-1.2c0.2,0,0.4-0.2,0.5-0.3c0.1-0.2,0.2-0.4,0.1-0.6L443,462.6z"/>
	<path fill="#FFFFFF" d="M471.2,452c-0.1-0.2-0.2-0.4-0.4-0.4c-0.2-0.1-0.4-0.1-0.6,0l-5.4,2.2c-0.2,0.1-0.4,0.2-0.4,0.4
		c-0.1,0.2-0.1,0.4,0,0.6l7.6,19.3c0.1,0.2,0.1,0.4,0,0.6s-0.2,0.3-0.4,0.4l-7.8,3.1c-0.2,0.1-0.4,0.1-0.6,0
		c-0.2-0.1-0.3-0.2-0.4-0.4l-7.6-19.3c-0.2-0.5-0.5-0.6-1-0.5l-5.4,2.1c-0.5,0.2-0.6,0.5-0.5,1l8.7,22.1c0.2,0.6,0.6,1.2,1.1,1.6
		c0.5,0.5,1,0.8,1.6,1.1c0.6,0.3,1.2,0.4,1.9,0.4c0.7,0,1.3-0.1,1.9-0.4l13.9-5.5c0.6-0.2,1.2-0.6,1.6-1.1c0.5-0.5,0.8-1,1.1-1.6
		s0.4-1.2,0.4-1.9c0-0.7-0.1-1.3-0.3-1.9L471.2,452z"/>
	<path fill="#FFFFFF" d="M504.7,450l-5.8-9.5c-0.4-0.6-0.8-1.1-1.3-1.4c-0.5-0.4-1.1-0.6-1.7-0.8c-0.6-0.1-1.2-0.2-1.9-0.1
		c-0.7,0.1-1.3,0.3-1.8,0.7l-14.3,8.8c-0.5,0.3-0.5,0.6-0.3,1.1l14.6,23.8c0.3,0.5,0.6,0.5,1.1,0.3l5-3c0.5-0.3,0.5-0.6,0.3-1.1
		l-3.6-5.9c-0.1-0.2-0.1-0.4-0.1-0.6c0.1-0.2,0.2-0.4,0.4-0.5l8-4.9c0.6-0.4,1.1-0.8,1.4-1.3c0.4-0.5,0.6-1.1,0.8-1.7
		c0.1-0.6,0.2-1.2,0.1-1.9C505.2,451.2,505,450.6,504.7,450z M490.5,456.4l-3.9-6.4l7-4.3l3.9,6.4L490.5,456.4z"/>
	<path fill="#FFFFFF" d="M542.7,425.3c-0.2-0.2-0.3-0.2-0.6-0.3c-0.2,0-0.4,0.1-0.6,0.2L534,433c-0.2,0.2-0.3,0.2-0.6,0.3
		c-0.2,0-0.4-0.1-0.6-0.2l-14.7-14.6c-0.4-0.4-0.8-0.4-1.1,0l-4.1,4.1c-0.4,0.4-0.4,0.8,0,1.1l19.8,19.7c0.4,0.4,0.8,0.4,1.1,0
		l12.8-12.9c0.2-0.2,0.2-0.3,0.2-0.6c0-0.2-0.1-0.4-0.3-0.6L542.7,425.3z"/>
	<path fill="#FFFFFF" d="M547.6,388.4c-0.5-0.4-1.1-0.7-1.8-0.8c-0.6-0.1-1.3-0.2-1.9,0c-0.6,0.1-1.2,0.3-1.8,0.7
		c-0.6,0.3-1,0.8-1.4,1.3l-8.7,12.1c-0.4,0.5-0.7,1.1-0.8,1.8c-0.1,0.6-0.2,1.3-0.1,1.9c0.1,0.6,0.3,1.2,0.7,1.8
		c0.3,0.6,0.8,1,1.3,1.4l19.3,13.8c0.4,0.3,0.8,0.2,1.1-0.2l3.4-4.7c0.3-0.4,0.2-0.8-0.2-1.1l-6.1-4.4c-0.2-0.1-0.3-0.3-0.3-0.5
		c0-0.2,0-0.4,0.1-0.6l4.9-6.8c0.1-0.2,0.3-0.3,0.5-0.3c0.2,0,0.4,0,0.6,0.2l6.1,4.4c0.2,0.1,0.4,0.2,0.6,0.1c0.2,0,0.4-0.1,0.5-0.3
		l3.4-4.8c0.1-0.2,0.2-0.4,0.1-0.6c0-0.2-0.1-0.4-0.3-0.5L547.6,388.4z M544.9,407.8l-6-4.3l5.8-8.1l6,4.3L544.9,407.8z"/>
	<path fill="#FFFFFF" d="M582.4,370.5c-0.2-0.6-0.5-1.1-1-1.6c-0.4-0.5-1-0.9-1.6-1.2l-5.2-2.4c-0.2-0.1-0.4-0.2-0.7-0.2
		c-0.3,0-0.5,0-0.7,0l-2.7,0.7c-0.2,0.1-0.4,0.1-0.6,0s-0.4-0.2-0.5-0.4l-1.3-2.6c-0.1-0.2-0.2-0.4-0.4-0.6
		c-0.2-0.2-0.4-0.4-0.6-0.4l-5-2.3c-0.6-0.3-1.2-0.4-1.9-0.5c-0.7,0-1.3,0.1-1.9,0.3c-0.6,0.2-1.1,0.5-1.6,1c-0.5,0.4-0.9,1-1.2,1.6
		l-8.1,17.3c-0.2,0.5-0.1,0.8,0.4,1.1l25.3,11.8c0.5,0.2,0.8,0.1,1.1-0.4l8.1-17.3c0.3-0.6,0.4-1.2,0.5-1.9
		C582.7,371.7,582.6,371,582.4,370.5z M560.4,378.6l-4.8-2.2l4.8-10.3l4.8,2.2L560.4,378.6z M570.8,383.4l-5.2-2.5l4.8-10.3l5.2,2.5
		L570.8,383.4z"/>
</g>
</svg>
